#!OML:ASF G:\JayActor3\Patient Classification 1\Patient 1\Session 5\male.ASF
:FULLY-SPECIFIED
:DEGREES
748
root -18.803 17.6873 -6.3611 984.442 -86.9157 -983.936
lowerback 1.04892 -1.1982 -3.48303
upperback 0.415961 -1.66076 -1.83145
thorax -0.117503 -0.842659 0.0922922
lowerneck -7.06649 0.226144 1.54293
upperneck 11.6287 -0.153958 1.51259
head 4.64806 0.0452473 0.201459
rclavicle 2.2239e-014 2.74323e-014
rhumerus -33.1906 -9.83675 -84.0965
rradius 22.8427
rwrist 6.50352
rhand -20.152 -10.6076
rfingers 7.12502
rthumb 6.19307 -40.4971
lclavicle 2.2239e-014 2.74323e-014
lhumerus -26.063 0.64535 82.945
lradius 35.5408
lwrist 21.785
lhand -19.2325 11.2292
lfingers 7.12502
lthumb 7.08077 41.0908
rfemur -34.5314 8.30241 16.1068
rtibia 30.8038
rfoot 3.69367 -18.548
rtoes -0.213548
lfemur 18.8881 14.5873 -23.9103
ltibia 1.27222e-014
lfoot 8.28093 -5.89211
ltoes -33.9926
749
root -18.9589 17.6856 -6.36942 990.792 -86.8897 -990.104
lowerback 0.944198 -1.27429 -3.52544
upperback 0.334906 -1.75947 -1.81541
thorax -0.137462 -0.890795 0.131806
lowerneck -7.07846 0.191694 1.5263
upperneck 11.6795 -0.197635 1.49092
head 4.66561 0.0220991 0.194878
rclavicle 1.33061e-014 -7.95139e-015
rhumerus -33.316 -9.99921 -83.9226
rradius 22.6565
rwrist 6.68805
rhand -20.1041 -10.5852
rfingers 7.12502
rthumb 6.23932 -40.4733
lclavicle 1.33061e-014 -7.95139e-015
lhumerus -25.9144 0.70225 83.0325
lradius 35.0898
lwrist 21.6146
lhand -19.2385 11.2257
lfingers 7.12502
lthumb 7.07493 41.0874
rfemur -35.0454 7.65243 16.2521
rtibia 30.2258
rfoot 3.9699 -19.8091
rtoes 1.29609
lfemur 19.1978 14.2071 -23.9253
ltibia 9.54166e-015
lfoot 8.25408 -5.60977
ltoes -34.3151
750
root -19.1175 17.7043 -6.37729 997.212 -86.8362 -996.36
lowerback 0.847685 -1.35257 -3.55875
upperback 0.260846 -1.86106 -1.79282
thorax -0.154642 -0.940406 0.172881
lowerneck -7.09289 0.156081 1.50899
upperneck 11.7174 -0.24183 1.46579
head 4.67964 -0.00153215 0.187298
rclavicle 9.01985e-015 2.78299e-015
rhumerus -33.4382 -10.1717 -83.7347
rradius 22.4627
rwrist 6.89376
rhand -20.0546 -10.5578
rfingers 7.12502
rthumb 6.28712 -40.4445
lclavicle 9.01985e-015 2.78299e-015
lhumerus -25.7812 0.78128 83.1299
lradius 34.6068
lwrist 21.4155
lhand -19.2435 11.2195
lfingers 7.12502
lthumb 7.07014 41.0814
rfemur -35.4149 6.95225 16.4404
rtibia 29.701
rfoot 4.05544 -20.8637
rtoes 2.65024
lfemur 19.5024 13.8145 -23.9245
ltibia 3.49861e-014
lfoot 8.30935 -5.32377
ltoes -34.6477
751
root -19.2782 17.7003 -6.3863 1003.43 -86.7485 -1002.43
lowerback 0.764465 -1.42985 -3.5907
upperback 0.195152 -1.96167 -1.76648
thorax -0.170447 -0.989597 0.21707
lowerneck -7.1084 0.121463 1.49402
upperneck 11.7399 -0.284136 1.43913
head 4.6891 -0.0242407 0.178968
rclavicle 1.90336e-014 1.94809e-014
rhumerus -33.5549 -10.3658 -83.531
rradius 22.2623
rwrist 7.12831
rhand -20.0021 -10.5318
rfingers 7.12502
rthumb 6.33778 -40.417
lclavicle 1.90336e-014 1.94809e-014
lhumerus -25.6605 0.879445 83.2351
lradius 34.0921
lwrist 21.1901
lhand -19.2365 11.2094
lfingers 7.12502
lthumb 7.07691 41.0711
rfemur -35.779 6.24409 16.6529
rtibia 29.3255
rfoot 4.07839 -21.7228
rtoes 3.73837
lfemur 19.8607 13.4169 -23.909
ltibia -1.90833e-014
lfoot 8.39335 -5.04012
ltoes -35.0004
752
root -19.441 17.6944 -6.39609 1009.17 -86.6338 -1008.05
lowerback 0.697539 -1.5031 -3.62273
upperback 0.139081 -2.05734 -1.73594
thorax -0.185312 -1.0364 0.265728
lowerneck -7.12616 0.0868687 1.47755
upperneck 11.7448 -0.326064 1.41658
head 4.69352 -0.0465938 0.172166
rclavicle 1.06226e-014 3.97569e-015
rhumerus -33.6689 -10.5703 -83.3178
rradius 22.0622
rwrist 7.37885
rhand -19.9599 -10.5004
rfingers 7.12502
rthumb 6.37856 -40.3844
lclavicle 1.06226e-014 3.97569e-015
lhumerus -25.5556 0.998443 83.344
lradius 33.5545
lwrist 20.9384
lhand -19.2245 11.2094
lfingers 7.12502
lthumb 7.08846 41.0707
rfemur -36.0578 5.57518 16.8733
rtibia 29.0544
rfoot 4.14116 -22.3994
rtoes 4.40337
lfemur 20.2447 13.0254 -23.8753
ltibia 3.49861e-014
lfoot 8.54107 -4.77924
ltoes -35.4143
753
root -19.606 17.6867 -6.40658 1014.34 -86.4988 -1013.14
lowerback 0.652705 -1.57037 -3.65283
upperback 0.0985037 -2.14558 -1.70199
thorax -0.196643 -1.07965 0.317033
lowerneck -7.16013 0.0518969 1.45432
upperneck 11.7383 -0.36863 1.40393
head 4.6972 -0.0688195 0.169487
rclavicle -1.18153e-014 -2.18663e-014
rhumerus -33.7586 -10.803 -83.0937
rradius 21.8457
rwrist 7.65142
rhand -19.9263 -10.4765
rfingers 7.12502
rthumb 6.41094 -40.3595
lclavicle -1.18153e-014 -2.18663e-014
lhumerus -25.4589 1.13819 83.4559
lradius 32.9941
lwrist 20.6622
lhand -19.1935 11.2101
lfingers 7.12502
lthumb 7.11835 41.0704
rfemur -36.2952 4.95549 17.0985
rtibia 29.008
rfoot 4.25677 -22.8976
rtoes 4.7153
lfemur 20.6679 12.6434 -23.8165
ltibia 6.04305e-014
lfoot 8.75797 -4.53698
ltoes -35.8158
754
root -19.7733 17.6772 -6.41785 1018.91 -86.36 -1017.66
lowerback 0.637175 -1.63098 -3.67303
upperback 0.0694189 -2.22591 -1.66402
thorax -0.212893 -1.11895 0.367555
lowerneck -7.19579 0.0199495 1.42831
upperneck 11.7194 -0.407628 1.40157
head 4.69738 -0.0888137 0.170648
rclavicle 6.23687e-015 -1.82882e-014
rhumerus -33.8446 -11.0528 -82.8634
rradius 21.6251
rwrist 7.94132
rhand -19.9092 -10.4471
rfingers 7.12502
rthumb 6.42751 -40.3296
lclavicle 6.23687e-015 -1.82882e-014
lhumerus -25.385 1.30359 83.5634
lradius 32.4192
lwrist 20.3662
lhand -19.1525 11.2037
lfingers 7.12502
lthumb 7.15792 41.0626
rfemur -36.4222 4.41831 17.3268
rtibia 29.0637
rfoot 4.44757 -23.3473
rtoes 4.86964
lfemur 21.1345 12.2777 -23.7201
ltibia -1.27222e-014
lfoot 9.05594 -4.32331
ltoes -36.1994
755
root -19.9431 17.6657 -6.42997 1023.01 -86.2273 -1021.75
lowerback 0.652802 -1.68549 -3.67873
upperback 0.0553716 -2.29895 -1.62044
thorax -0.231598 -1.15467 0.416434
lowerneck -7.23503 -0.00892997 1.39998
upperneck 11.6857 -0.442532 1.40606
head 4.69366 -0.106479 0.174552
rclavicle -9.26834e-015 -2.14687e-014
rhumerus -33.9149 -11.3218 -82.6299
rradius 21.3919
rwrist 8.24654
rhand -19.9065 -10.412
rfingers 7.12502
rthumb 6.43009 -40.2944
lclavicle -9.26834e-015 -2.14687e-014
lhumerus -25.338 1.49275 83.6649
lradius 31.8418
lwrist 20.0594
lhand -19.1052 11.2026
lfingers 7.12502
lthumb 7.20356 41.06
rfemur -36.425 3.97571 17.5638
rtibia 29.2113
rfoot 4.68732 -23.7929
rtoes 4.99457
lfemur 21.6519 11.9283 -23.5781
ltibia -1.59028e-014
lfoot 9.43933 -4.13457
ltoes -36.54
756
root -20.1156 17.6527 -6.44289 1026.65 -86.1098 -1025.42
lowerback 0.697655 -1.73008 -3.66711
upperback 0.0554951 -2.35951 -1.57182
thorax -0.252932 -1.18422 0.46151
lowerneck -7.27858 -0.0363484 1.3696
upperneck 11.6388 -0.475468 1.41635
head 4.68664 -0.122901 0.1807
rclavicle 7.72154e-015 2.98177e-015
rhumerus -33.9772 -11.6126 -82.3924
rradius 21.1525
rwrist 8.56479
rhand -19.9205 -10.3658
rfingers 7.12502
rthumb 6.41655 -40.2486
lclavicle 7.72154e-015 2.98177e-015
lhumerus -25.3216 1.69774 83.7607
lradius 31.2706
lwrist 19.7502
lhand -19.0525 11.2009
lfingers 7.12502
lthumb 7.25446 41.0566
rfemur -36.3037 3.66134 17.7973
rtibia 29.437
rfoot 4.91366 -24.2594
rtoes 5.26714
lfemur 22.2181 11.6021 -23.3892
ltibia -2.22639e-014
lfoot 9.92165 -3.95957
ltoes -36.8103
757
root -20.2911 17.6381 -6.45667 1029.79 -86.0208 -1028.62
lowerback 0.758759 -1.76286 -3.63941
upperback 0.0616727 -2.40463 -1.51582
thorax -0.277963 -1.20603 0.505611
lowerneck -7.30757 -0.0615567 1.34007
upperneck 11.5761 -0.504678 1.42571
head 4.6723 -0.137684 0.186659
rclavicle -8.48562e-015 -1.35174e-014
rhumerus -34.0491 -11.9114 -82.1525
rradius 20.9213
rwrist 8.88943
rhand -19.9393 -10.3218
rfingers 7.12502
rthumb 6.3984 -40.2052
lclavicle -8.48562e-015 -1.35174e-014
lhumerus -25.3497 1.91827 83.8498
lradius 30.7157
lwrist 19.4513
lhand -19.0151 11.2091
lfingers 7.12502
lthumb 7.29057 41.0635
rfemur -36.0776 3.47577 18.0367
rtibia 29.7287
rfoot 5.1968 -24.6739
rtoes 5.50477
lfemur 22.8208 11.3114 -23.1558
ltibia -9.54166e-015
lfoot 10.5075 -3.77938
ltoes -37.009
758
root -20.4703 17.6223 -6.47125 1032.66 -85.9509 -1031.58
lowerback 0.825428 -1.78645 -3.59739
upperback 0.0740636 -2.43728 -1.45446
thorax -0.300493 -1.22168 0.547279
lowerneck -7.32383 -0.0846155 1.30992
upperneck 11.5001 -0.530336 1.43529
head 4.65175 -0.150883 0.193024
rclavicle -1.6319e-014 9.93923e-016
rhumerus -34.145 -12.188 -81.9211
rradius 20.7195
rwrist 9.18139
rhand -19.9607 -10.2803
rfingers 7.12502
rthumb 6.37771 -40.1643
lclavicle -1.6319e-014 9.93923e-016
lhumerus -25.4235 2.13775 83.9352
lradius 30.1848
lwrist 19.171
lhand -18.9941 11.2253
lfingers 7.12502
lthumb 7.31086 41.079
rfemur -35.8227 3.39128 18.2839
rtibia 30.2174
rfoot 5.52395 -24.9091
rtoes 5.694
lfemur 23.4539 11.0415 -22.8852
ltibia -3.49861e-014
lfoot 11.2108 -3.55975
ltoes -37.0867
